<svg width="40" height="41" viewBox="0 0 40 41" fill="none" xmlns="http://www.w3.org/2000/svg">
<circle cx="20" cy="20.0161" r="20" fill="#EDFFFC"/>
<path d="M25 10.0161H15C12.2386 10.0161 10 12.2547 10 15.0161V25.0161C10 27.7775 12.2386 30.0161 15 30.0161H25C27.7614 30.0161 30 27.7775 30 25.0161V15.0161C30 12.2547 27.7614 10.0161 25 10.0161Z" stroke="#02897A" stroke-width="2" stroke-linecap="round" stroke-linejoin="round"/>
<path d="M23.9997 19.3859C24.1231 20.2182 23.981 21.0681 23.5935 21.8149C23.206 22.5617 22.5929 23.1673 21.8413 23.5456C21.0898 23.9239 20.2382 24.0555 19.4075 23.9219C18.5768 23.7882 17.8095 23.396 17.2145 22.8011C16.6196 22.2062 16.2274 21.4388 16.0938 20.6081C15.9601 19.7775 16.0918 18.9258 16.47 18.1743C16.8483 17.4228 17.4539 16.8097 18.2007 16.4222C18.9475 16.0347 19.7975 15.8925 20.6297 16.0159C21.4786 16.1418 22.2646 16.5374 22.8714 17.1442C23.4782 17.7511 23.8738 18.537 23.9997 19.3859Z" stroke="#02897A" stroke-width="2" stroke-linecap="round" stroke-linejoin="round"/>
<path d="M25.5 14.5161H25.51" stroke="#02897A" stroke-width="2" stroke-linecap="round" stroke-linejoin="round"/>
</svg>
